{
 "cells": [
  {
   "cell_type": "code",
   "execution_count": 1,
   "metadata": {
    "collapsed": true
   },
   "outputs": [],
   "source": [
    "import numpy as np\n",
    "from mido import MidiFile"
   ]
  },
  {
   "cell_type": "code",
   "execution_count": 3,
   "metadata": {
    "collapsed": false
   },
   "outputs": [
    {
     "name": "stdout",
     "output_type": "stream",
     "text": [
      "MetaMessage('midi_port', port=0, time=0)\n",
      "MetaMessage('track_name', name='Piano right', time=0)\n",
      "program_change channel=0 program=0 time=0\n",
      "control_change channel=0 control=7 value=100 time=0\n",
      "control_change channel=0 control=10 value=64 time=0\n",
      "control_change channel=0 control=91 value=127 time=0\n",
      "MetaMessage('text', text='bdca426d104a26ac9dcb070447587523', time=0)\n",
      "note_on channel=0 note=67 velocity=56 time=241\n",
      "note_on channel=0 note=67 velocity=0 time=120\n",
      "note_on channel=0 note=72 velocity=60 time=0\n",
      "note_on channel=0 note=72 velocity=0 time=120\n",
      "note_on channel=0 note=76 velocity=63 time=0\n",
      "note_on channel=0 note=76 velocity=0 time=108\n",
      "note_on channel=0 note=67 velocity=50 time=12\n",
      "note_on channel=0 note=67 velocity=0 time=120\n",
      "note_on channel=0 note=72 velocity=47 time=0\n",
      "note_on channel=0 note=72 velocity=0 time=120\n",
      "note_on channel=0 note=76 velocity=47 time=0\n",
      "note_on channel=0 note=76 velocity=0 time=120\n",
      "note_on channel=0 note=67 velocity=56 time=240\n",
      "note_on channel=0 note=67 velocity=0 time=120\n",
      "note_on channel=0 note=72 velocity=60 time=0\n",
      "note_on channel=0 note=72 velocity=0 time=120\n",
      "note_on channel=0 note=76 velocity=62 time=0\n",
      "note_on channel=0 note=76 velocity=0 time=108\n",
      "note_on channel=0 note=67 velocity=50 time=12\n",
      "note_on channel=0 note=67 velocity=0 time=120\n",
      "note_on channel=0 note=72 velocity=48 time=0\n",
      "note_on channel=0 note=72 velocity=0 time=120\n",
      "note_on channel=0 note=76 velocity=48 time=0\n",
      "control_change channel=0 control=91 value=127 time=119\n",
      "note_on channel=0 note=76 velocity=0 time=1\n",
      "note_on channel=0 note=69 velocity=56 time=240\n",
      "note_on channel=0 note=69 velocity=0 time=120\n",
      "note_on channel=0 note=74 velocity=60 time=0\n",
      "note_on channel=0 note=74 velocity=0 time=120\n",
      "note_on channel=0 note=77 velocity=65 time=0\n",
      "note_on channel=0 note=77 velocity=0 time=108\n",
      "note_on channel=0 note=69 velocity=51 time=12\n",
      "note_on channel=0 note=69 velocity=0 time=120\n",
      "note_on channel=0 note=74 velocity=50 time=0\n",
      "note_on channel=0 note=74 velocity=0 time=120\n",
      "note_on channel=0 note=77 velocity=50 time=0\n",
      "note_on channel=0 note=77 velocity=0 time=120\n",
      "note_on channel=0 note=69 velocity=58 time=240\n",
      "note_on channel=0 note=69 velocity=0 time=120\n",
      "note_on channel=0 note=74 velocity=60 time=0\n",
      "note_on channel=0 note=74 velocity=0 time=120\n",
      "note_on channel=0 note=77 velocity=65 time=0\n",
      "note_on channel=0 note=77 velocity=0 time=108\n",
      "note_on channel=0 note=69 velocity=52 time=12\n",
      "note_on channel=0 note=69 velocity=0 time=120\n",
      "note_on channel=0 note=74 velocity=50 time=0\n",
      "note_on channel=0 note=74 velocity=0 time=120\n",
      "note_on channel=0 note=77 velocity=50 time=0\n",
      "control_change channel=0 control=91 value=127 time=119\n",
      "note_on channel=0 note=77 velocity=0 time=1\n",
      "note_on channel=0 note=67 velocity=56 time=240\n",
      "note_on channel=0 note=67 velocity=0 time=120\n",
      "note_on channel=0 note=74 velocity=60 time=0\n",
      "note_on channel=0 note=74 velocity=0 time=120\n",
      "note_on channel=0 note=77 velocity=65 time=0\n",
      "note_on channel=0 note=77 velocity=0 time=108\n",
      "note_on channel=0 note=67 velocity=51 time=12\n",
      "note_on channel=0 note=67 velocity=0 time=120\n",
      "note_on channel=0 note=74 velocity=50 time=0\n",
      "note_on channel=0 note=74 velocity=0 time=120\n",
      "note_on channel=0 note=77 velocity=50 time=0\n",
      "note_on channel=0 note=77 velocity=0 time=120\n",
      "note_on channel=0 note=67 velocity=56 time=240\n",
      "note_on channel=0 note=67 velocity=0 time=120\n",
      "note_on channel=0 note=74 velocity=60 time=0\n",
      "note_on channel=0 note=74 velocity=0 time=120\n",
      "note_on channel=0 note=77 velocity=65 time=0\n",
      "note_on channel=0 note=77 velocity=0 time=108\n",
      "note_on channel=0 note=67 velocity=52 time=12\n",
      "note_on channel=0 note=67 velocity=0 time=120\n",
      "note_on channel=0 note=74 velocity=50 time=0\n",
      "note_on channel=0 note=74 velocity=0 time=120\n",
      "note_on channel=0 note=77 velocity=50 time=0\n",
      "control_change channel=0 control=91 value=127 time=119\n",
      "note_on channel=0 note=77 velocity=0 time=1\n",
      "note_on channel=0 note=67 velocity=53 time=240\n",
      "note_on channel=0 note=67 velocity=0 time=120\n",
      "note_on channel=0 note=72 velocity=55 time=0\n",
      "note_on channel=0 note=72 velocity=0 time=120\n",
      "note_on channel=0 note=76 velocity=60 time=0\n",
      "note_on channel=0 note=76 velocity=0 time=108\n",
      "note_on channel=0 note=67 velocity=50 time=12\n",
      "note_on channel=0 note=67 velocity=0 time=120\n",
      "note_on channel=0 note=72 velocity=47 time=0\n",
      "note_on channel=0 note=72 velocity=0 time=120\n",
      "note_on channel=0 note=76 velocity=47 time=0\n",
      "note_on channel=0 note=76 velocity=0 time=120\n",
      "note_on channel=0 note=67 velocity=55 time=240\n",
      "note_on channel=0 note=67 velocity=0 time=120\n",
      "note_on channel=0 note=72 velocity=57 time=0\n",
      "note_on channel=0 note=72 velocity=0 time=120\n",
      "note_on channel=0 note=76 velocity=61 time=0\n",
      "note_on channel=0 note=76 velocity=0 time=108\n",
      "note_on channel=0 note=67 velocity=50 time=12\n",
      "note_on channel=0 note=67 velocity=0 time=120\n",
      "note_on channel=0 note=72 velocity=48 time=0\n",
      "note_on channel=0 note=72 velocity=0 time=120\n",
      "note_on channel=0 note=76 velocity=48 time=0\n",
      "control_change channel=0 control=91 value=127 time=119\n",
      "note_on channel=0 note=76 velocity=0 time=1\n",
      "note_on channel=0 note=69 velocity=61 time=240\n",
      "note_on channel=0 note=69 velocity=0 time=120\n",
      "note_on channel=0 note=76 velocity=66 time=0\n",
      "note_on channel=0 note=76 velocity=0 time=120\n",
      "note_on channel=0 note=81 velocity=70 time=0\n",
      "note_on channel=0 note=81 velocity=0 time=108\n",
      "note_on channel=0 note=69 velocity=55 time=12\n",
      "note_on channel=0 note=69 velocity=0 time=120\n",
      "note_on channel=0 note=76 velocity=51 time=0\n",
      "note_on channel=0 note=76 velocity=0 time=120\n",
      "note_on channel=0 note=81 velocity=51 time=0\n",
      "note_on channel=0 note=81 velocity=0 time=120\n",
      "note_on channel=0 note=69 velocity=61 time=240\n",
      "note_on channel=0 note=69 velocity=0 time=120\n",
      "note_on channel=0 note=76 velocity=65 time=0\n",
      "note_on channel=0 note=76 velocity=0 time=120\n",
      "note_on channel=0 note=81 velocity=68 time=0\n",
      "note_on channel=0 note=81 velocity=0 time=108\n",
      "note_on channel=0 note=69 velocity=55 time=12\n",
      "note_on channel=0 note=69 velocity=0 time=120\n",
      "note_on channel=0 note=76 velocity=52 time=0\n",
      "note_on channel=0 note=76 velocity=0 time=120\n",
      "note_on channel=0 note=81 velocity=52 time=0\n",
      "control_change channel=0 control=91 value=127 time=119\n",
      "note_on channel=0 note=81 velocity=0 time=1\n",
      "note_on channel=0 note=66 velocity=56 time=240\n",
      "note_on channel=0 note=66 velocity=0 time=120\n",
      "note_on channel=0 note=69 velocity=60 time=0\n",
      "note_on channel=0 note=69 velocity=0 time=120\n",
      "note_on channel=0 note=74 velocity=63 time=0\n",
      "note_on channel=0 note=74 velocity=0 time=108\n",
      "note_on channel=0 note=66 velocity=50 time=12\n",
      "note_on channel=0 note=66 velocity=0 time=120\n",
      "note_on channel=0 note=69 velocity=47 time=0\n",
      "note_on channel=0 note=69 velocity=0 time=120\n",
      "note_on channel=0 note=74 velocity=47 time=0\n",
      "note_on channel=0 note=74 velocity=0 time=120\n",
      "note_on channel=0 note=66 velocity=56 time=240\n",
      "note_on channel=0 note=66 velocity=0 time=120\n",
      "note_on channel=0 note=69 velocity=60 time=0\n",
      "note_on channel=0 note=69 velocity=0 time=120\n",
      "note_on channel=0 note=74 velocity=62 time=0\n",
      "note_on channel=0 note=74 velocity=0 time=108\n",
      "note_on channel=0 note=66 velocity=50 time=12\n",
      "note_on channel=0 note=66 velocity=0 time=120\n",
      "note_on channel=0 note=69 velocity=48 time=0\n",
      "note_on channel=0 note=69 velocity=0 time=120\n",
      "note_on channel=0 note=74 velocity=48 time=0\n",
      "control_change channel=0 control=91 value=127 time=119\n",
      "note_on channel=0 note=74 velocity=0 time=1\n",
      "note_on channel=0 note=67 velocity=58 time=240\n",
      "note_on channel=0 note=67 velocity=0 time=120\n",
      "note_on channel=0 note=74 velocity=63 time=0\n",
      "note_on channel=0 note=74 velocity=0 time=120\n",
      "note_on channel=0 note=79 velocity=66 time=0\n",
      "note_on channel=0 note=79 velocity=0 time=108\n",
      "note_on channel=0 note=67 velocity=51 time=12\n",
      "note_on channel=0 note=67 velocity=0 time=120\n",
      "note_on channel=0 note=74 velocity=50 time=0\n",
      "note_on channel=0 note=74 velocity=0 time=120\n",
      "note_on channel=0 note=79 velocity=50 time=0\n",
      "note_on channel=0 note=79 velocity=0 time=120\n",
      "note_on channel=0 note=67 velocity=58 time=240\n",
      "note_on channel=0 note=67 velocity=0 time=120\n",
      "note_on channel=0 note=74 velocity=62 time=0\n",
      "note_on channel=0 note=74 velocity=0 time=120\n",
      "note_on channel=0 note=79 velocity=65 time=0\n",
      "note_on channel=0 note=79 velocity=0 time=108\n",
      "note_on channel=0 note=67 velocity=52 time=12\n",
      "note_on channel=0 note=67 velocity=0 time=120\n",
      "note_on channel=0 note=74 velocity=50 time=0\n",
      "note_on channel=0 note=74 velocity=0 time=120\n",
      "note_on channel=0 note=79 velocity=50 time=0\n",
      "control_change channel=0 control=91 value=127 time=119\n",
      "note_on channel=0 note=79 velocity=0 time=1\n",
      "note_on channel=0 note=64 velocity=56 time=240\n",
      "note_on channel=0 note=64 velocity=0 time=120\n",
      "note_on channel=0 note=67 velocity=60 time=0\n",
      "note_on channel=0 note=67 velocity=0 time=120\n",
      "note_on channel=0 note=72 velocity=63 time=0\n",
      "note_on channel=0 note=72 velocity=0 time=108\n",
      "note_on channel=0 note=64 velocity=50 time=12\n",
      "note_on channel=0 note=64 velocity=0 time=120\n",
      "note_on channel=0 note=67 velocity=47 time=0\n",
      "note_on channel=0 note=67 velocity=0 time=120\n",
      "note_on channel=0 note=72 velocity=47 time=0\n",
      "note_on channel=0 note=72 velocity=0 time=120\n",
      "note_on channel=0 note=64 velocity=56 time=240\n",
      "note_on channel=0 note=64 velocity=0 time=120\n",
      "note_on channel=0 note=67 velocity=60 time=0\n",
      "note_on channel=0 note=67 velocity=0 time=120\n",
      "note_on channel=0 note=72 velocity=62 time=0\n",
      "note_on channel=0 note=72 velocity=0 time=108\n",
      "note_on channel=0 note=64 velocity=50 time=12\n",
      "note_on channel=0 note=64 velocity=0 time=120\n",
      "note_on channel=0 note=67 velocity=48 time=0\n",
      "note_on channel=0 note=67 velocity=0 time=120\n",
      "note_on channel=0 note=72 velocity=48 time=0\n",
      "control_change channel=0 control=91 value=127 time=119\n",
      "note_on channel=0 note=72 velocity=0 time=1\n",
      "note_on channel=0 note=64 velocity=56 time=240\n",
      "note_on channel=0 note=64 velocity=0 time=120\n",
      "note_on channel=0 note=67 velocity=60 time=0\n",
      "note_on channel=0 note=67 velocity=0 time=120\n",
      "note_on channel=0 note=72 velocity=63 time=0\n",
      "note_on channel=0 note=72 velocity=0 time=108\n",
      "note_on channel=0 note=64 velocity=50 time=12\n",
      "note_on channel=0 note=64 velocity=0 time=120\n",
      "note_on channel=0 note=67 velocity=47 time=0\n",
      "note_on channel=0 note=67 velocity=0 time=120\n",
      "note_on channel=0 note=72 velocity=47 time=0\n",
      "note_on channel=0 note=72 velocity=0 time=120\n",
      "note_on channel=0 note=64 velocity=56 time=240\n",
      "note_on channel=0 note=64 velocity=0 time=120\n",
      "note_on channel=0 note=67 velocity=60 time=0\n",
      "note_on channel=0 note=67 velocity=0 time=120\n",
      "note_on channel=0 note=72 velocity=62 time=0\n",
      "note_on channel=0 note=72 velocity=0 time=108\n",
      "note_on channel=0 note=64 velocity=50 time=12\n",
      "note_on channel=0 note=64 velocity=0 time=120\n",
      "note_on channel=0 note=67 velocity=48 time=0\n",
      "note_on channel=0 note=67 velocity=0 time=120\n",
      "note_on channel=0 note=72 velocity=48 time=0\n",
      "control_change channel=0 control=91 value=127 time=119\n",
      "note_on channel=0 note=72 velocity=0 time=1\n",
      "note_on channel=0 note=62 velocity=56 time=240\n",
      "note_on channel=0 note=62 velocity=0 time=120\n",
      "note_on channel=0 note=66 velocity=60 time=0\n",
      "note_on channel=0 note=66 velocity=0 time=120\n",
      "note_on channel=0 note=72 velocity=63 time=0\n",
      "note_on channel=0 note=72 velocity=0 time=108\n",
      "note_on channel=0 note=62 velocity=50 time=12\n",
      "note_on channel=0 note=62 velocity=0 time=120\n",
      "note_on channel=0 note=66 velocity=47 time=0\n",
      "note_on channel=0 note=66 velocity=0 time=120\n",
      "note_on channel=0 note=72 velocity=47 time=0\n",
      "note_on channel=0 note=72 velocity=0 time=120\n",
      "note_on channel=0 note=62 velocity=56 time=240\n",
      "note_on channel=0 note=62 velocity=0 time=120\n",
      "note_on channel=0 note=66 velocity=60 time=0\n",
      "note_on channel=0 note=66 velocity=0 time=120\n",
      "note_on channel=0 note=72 velocity=62 time=0\n",
      "note_on channel=0 note=72 velocity=0 time=108\n",
      "note_on channel=0 note=62 velocity=50 time=12\n",
      "note_on channel=0 note=62 velocity=0 time=120\n",
      "note_on channel=0 note=66 velocity=48 time=0\n",
      "note_on channel=0 note=66 velocity=0 time=120\n",
      "note_on channel=0 note=72 velocity=48 time=0\n",
      "control_change channel=0 control=91 value=127 time=119\n",
      "note_on channel=0 note=72 velocity=0 time=1\n",
      "note_on channel=0 note=62 velocity=53 time=240\n",
      "note_on channel=0 note=62 velocity=0 time=120\n",
      "note_on channel=0 note=67 velocity=56 time=0\n",
      "note_on channel=0 note=67 velocity=0 time=120\n",
      "note_on channel=0 note=71 velocity=60 time=0\n",
      "note_on channel=0 note=71 velocity=0 time=108\n",
      "note_on channel=0 note=62 velocity=46 time=12\n",
      "note_on channel=0 note=62 velocity=0 time=120\n",
      "note_on channel=0 note=67 velocity=45 time=0\n",
      "note_on channel=0 note=67 velocity=0 time=120\n",
      "note_on channel=0 note=71 velocity=45 time=0\n",
      "note_on channel=0 note=71 velocity=0 time=120\n",
      "note_on channel=0 note=62 velocity=53 time=240\n",
      "note_on channel=0 note=62 velocity=0 time=120\n",
      "note_on channel=0 note=67 velocity=56 time=0\n",
      "note_on channel=0 note=67 velocity=0 time=120\n",
      "note_on channel=0 note=71 velocity=58 time=0\n",
      "note_on channel=0 note=71 velocity=0 time=108\n",
      "note_on channel=0 note=62 velocity=47 time=12\n",
      "note_on channel=0 note=62 velocity=0 time=120\n",
      "note_on channel=0 note=67 velocity=45 time=0\n",
      "note_on channel=0 note=67 velocity=0 time=120\n",
      "note_on channel=0 note=71 velocity=45 time=0\n",
      "control_change channel=0 control=91 value=127 time=119\n",
      "note_on channel=0 note=71 velocity=0 time=1\n",
      "note_on channel=0 note=64 velocity=53 time=240\n",
      "note_on channel=0 note=64 velocity=0 time=120\n",
      "note_on channel=0 note=67 velocity=56 time=0\n",
      "note_on channel=0 note=67 velocity=0 time=120\n",
      "note_on channel=0 note=73 velocity=60 time=0\n",
      "note_on channel=0 note=73 velocity=0 time=108\n",
      "note_on channel=0 note=64 velocity=46 time=12\n",
      "note_on channel=0 note=64 velocity=0 time=120\n",
      "note_on channel=0 note=67 velocity=45 time=0\n",
      "note_on channel=0 note=67 velocity=0 time=120\n",
      "note_on channel=0 note=73 velocity=45 time=0\n",
      "note_on channel=0 note=73 velocity=0 time=120\n",
      "note_on channel=0 note=64 velocity=53 time=240\n",
      "note_on channel=0 note=64 velocity=0 time=120\n",
      "note_on channel=0 note=67 velocity=56 time=0\n",
      "note_on channel=0 note=67 velocity=0 time=120\n",
      "note_on channel=0 note=73 velocity=58 time=0\n",
      "note_on channel=0 note=73 velocity=0 time=108\n",
      "note_on channel=0 note=64 velocity=47 time=12\n",
      "note_on channel=0 note=64 velocity=0 time=120\n",
      "note_on channel=0 note=67 velocity=45 time=0\n",
      "note_on channel=0 note=67 velocity=0 time=120\n",
      "note_on channel=0 note=73 velocity=45 time=0\n",
      "control_change channel=0 control=91 value=127 time=119\n",
      "note_on channel=0 note=73 velocity=0 time=1\n",
      "note_on channel=0 note=62 velocity=56 time=240\n",
      "note_on channel=0 note=62 velocity=0 time=120\n",
      "note_on channel=0 note=69 velocity=60 time=0\n",
      "note_on channel=0 note=69 velocity=0 time=120\n",
      "note_on channel=0 note=74 velocity=63 time=0\n",
      "note_on channel=0 note=74 velocity=0 time=108\n",
      "note_on channel=0 note=62 velocity=50 time=12\n",
      "note_on channel=0 note=62 velocity=0 time=120\n",
      "note_on channel=0 note=69 velocity=47 time=0\n",
      "note_on channel=0 note=69 velocity=0 time=120\n",
      "note_on channel=0 note=74 velocity=47 time=0\n",
      "note_on channel=0 note=74 velocity=0 time=120\n",
      "note_on channel=0 note=62 velocity=56 time=240\n",
      "note_on channel=0 note=62 velocity=0 time=120\n",
      "note_on channel=0 note=69 velocity=60 time=0\n",
      "note_on channel=0 note=69 velocity=0 time=120\n",
      "note_on channel=0 note=74 velocity=62 time=0\n",
      "note_on channel=0 note=74 velocity=0 time=108\n",
      "note_on channel=0 note=62 velocity=50 time=12\n",
      "note_on channel=0 note=62 velocity=0 time=120\n",
      "note_on channel=0 note=69 velocity=48 time=0\n",
      "note_on channel=0 note=69 velocity=0 time=120\n",
      "note_on channel=0 note=74 velocity=48 time=0\n",
      "control_change channel=0 control=91 value=127 time=119\n",
      "note_on channel=0 note=74 velocity=0 time=1\n",
      "note_on channel=0 note=62 velocity=53 time=240\n",
      "note_on channel=0 note=62 velocity=0 time=120\n",
      "note_on channel=0 note=65 velocity=56 time=0\n",
      "note_on channel=0 note=65 velocity=0 time=120\n",
      "note_on channel=0 note=71 velocity=60 time=0\n",
      "note_on channel=0 note=71 velocity=0 time=108\n",
      "note_on channel=0 note=62 velocity=46 time=12\n",
      "note_on channel=0 note=62 velocity=0 time=120\n",
      "note_on channel=0 note=65 velocity=45 time=0\n",
      "note_on channel=0 note=65 velocity=0 time=120\n",
      "note_on channel=0 note=71 velocity=45 time=0\n",
      "note_on channel=0 note=71 velocity=0 time=120\n",
      "note_on channel=0 note=62 velocity=53 time=240\n",
      "note_on channel=0 note=62 velocity=0 time=120\n",
      "note_on channel=0 note=65 velocity=56 time=0\n",
      "note_on channel=0 note=65 velocity=0 time=120\n",
      "note_on channel=0 note=71 velocity=58 time=0\n",
      "note_on channel=0 note=71 velocity=0 time=108\n",
      "note_on channel=0 note=62 velocity=47 time=12\n",
      "note_on channel=0 note=62 velocity=0 time=120\n",
      "note_on channel=0 note=65 velocity=45 time=0\n",
      "note_on channel=0 note=65 velocity=0 time=120\n",
      "note_on channel=0 note=71 velocity=45 time=0\n",
      "control_change channel=0 control=91 value=127 time=119\n",
      "note_on channel=0 note=71 velocity=0 time=1\n",
      "note_on channel=0 note=60 velocity=53 time=240\n",
      "note_on channel=0 note=60 velocity=0 time=120\n",
      "note_on channel=0 note=67 velocity=56 time=0\n",
      "note_on channel=0 note=67 velocity=0 time=120\n",
      "note_on channel=0 note=72 velocity=60 time=0\n",
      "note_on channel=0 note=72 velocity=0 time=108\n",
      "note_on channel=0 note=60 velocity=46 time=12\n",
      "note_on channel=0 note=60 velocity=0 time=120\n",
      "note_on channel=0 note=67 velocity=45 time=0\n",
      "note_on channel=0 note=67 velocity=0 time=120\n",
      "note_on channel=0 note=72 velocity=45 time=0\n",
      "note_on channel=0 note=72 velocity=0 time=120\n",
      "note_on channel=0 note=60 velocity=53 time=240\n",
      "note_on channel=0 note=60 velocity=0 time=120\n",
      "note_on channel=0 note=67 velocity=56 time=0\n",
      "note_on channel=0 note=67 velocity=0 time=120\n",
      "note_on channel=0 note=72 velocity=58 time=0\n",
      "note_on channel=0 note=72 velocity=0 time=108\n",
      "note_on channel=0 note=60 velocity=47 time=12\n",
      "note_on channel=0 note=60 velocity=0 time=120\n",
      "note_on channel=0 note=67 velocity=45 time=0\n",
      "note_on channel=0 note=67 velocity=0 time=120\n",
      "note_on channel=0 note=72 velocity=45 time=0\n",
      "control_change channel=0 control=91 value=127 time=119\n",
      "note_on channel=0 note=72 velocity=0 time=1\n",
      "note_on channel=0 note=57 velocity=50 time=240\n",
      "note_on channel=0 note=57 velocity=0 time=120\n",
      "note_on channel=0 note=60 velocity=53 time=0\n",
      "note_on channel=0 note=60 velocity=0 time=120\n",
      "note_on channel=0 note=65 velocity=56 time=0\n",
      "note_on channel=0 note=65 velocity=0 time=108\n",
      "note_on channel=0 note=57 velocity=45 time=12\n",
      "note_on channel=0 note=57 velocity=0 time=120\n",
      "note_on channel=0 note=60 velocity=42 time=0\n",
      "note_on channel=0 note=60 velocity=0 time=120\n",
      "note_on channel=0 note=65 velocity=42 time=0\n",
      "note_on channel=0 note=65 velocity=0 time=120\n",
      "note_on channel=0 note=57 velocity=50 time=240\n",
      "note_on channel=0 note=57 velocity=0 time=120\n",
      "note_on channel=0 note=60 velocity=53 time=0\n",
      "note_on channel=0 note=60 velocity=0 time=120\n",
      "note_on channel=0 note=65 velocity=55 time=0\n",
      "note_on channel=0 note=65 velocity=0 time=108\n",
      "note_on channel=0 note=57 velocity=45 time=12\n",
      "note_on channel=0 note=57 velocity=0 time=120\n",
      "note_on channel=0 note=60 velocity=43 time=0\n",
      "note_on channel=0 note=60 velocity=0 time=120\n",
      "note_on channel=0 note=65 velocity=43 time=0\n",
      "control_change channel=0 control=91 value=127 time=119\n",
      "note_on channel=0 note=65 velocity=0 time=1\n",
      "note_on channel=0 note=57 velocity=50 time=240\n",
      "note_on channel=0 note=57 velocity=0 time=120\n",
      "note_on channel=0 note=60 velocity=53 time=0\n",
      "note_on channel=0 note=60 velocity=0 time=120\n",
      "note_on channel=0 note=65 velocity=56 time=0\n",
      "note_on channel=0 note=65 velocity=0 time=108\n",
      "note_on channel=0 note=57 velocity=45 time=12\n",
      "note_on channel=0 note=57 velocity=0 time=120\n",
      "note_on channel=0 note=60 velocity=42 time=0\n",
      "note_on channel=0 note=60 velocity=0 time=120\n",
      "note_on channel=0 note=65 velocity=42 time=0\n",
      "note_on channel=0 note=65 velocity=0 time=120\n",
      "note_on channel=0 note=57 velocity=50 time=240\n",
      "note_on channel=0 note=57 velocity=0 time=120\n",
      "note_on channel=0 note=60 velocity=53 time=0\n",
      "note_on channel=0 note=60 velocity=0 time=120\n",
      "note_on channel=0 note=65 velocity=55 time=0\n",
      "note_on channel=0 note=65 velocity=0 time=108\n",
      "note_on channel=0 note=57 velocity=45 time=12\n",
      "note_on channel=0 note=57 velocity=0 time=120\n",
      "note_on channel=0 note=60 velocity=43 time=0\n",
      "note_on channel=0 note=60 velocity=0 time=120\n",
      "note_on channel=0 note=65 velocity=43 time=0\n",
      "control_change channel=0 control=91 value=127 time=119\n",
      "note_on channel=0 note=65 velocity=0 time=1\n",
      "note_on channel=0 note=55 velocity=50 time=240\n",
      "note_on channel=0 note=55 velocity=0 time=120\n",
      "note_on channel=0 note=59 velocity=53 time=0\n",
      "note_on channel=0 note=59 velocity=0 time=120\n",
      "note_on channel=0 note=65 velocity=56 time=0\n",
      "note_on channel=0 note=65 velocity=0 time=108\n",
      "note_on channel=0 note=55 velocity=45 time=12\n",
      "note_on channel=0 note=55 velocity=0 time=120\n",
      "note_on channel=0 note=59 velocity=42 time=0\n",
      "note_on channel=0 note=59 velocity=0 time=120\n",
      "note_on channel=0 note=65 velocity=42 time=0\n",
      "note_on channel=0 note=65 velocity=0 time=120\n",
      "note_on channel=0 note=55 velocity=50 time=240\n",
      "note_on channel=0 note=55 velocity=0 time=120\n",
      "note_on channel=0 note=59 velocity=53 time=0\n",
      "note_on channel=0 note=59 velocity=0 time=120\n",
      "note_on channel=0 note=65 velocity=55 time=0\n",
      "note_on channel=0 note=65 velocity=0 time=108\n",
      "note_on channel=0 note=55 velocity=45 time=12\n",
      "note_on channel=0 note=55 velocity=0 time=120\n",
      "note_on channel=0 note=59 velocity=43 time=0\n",
      "note_on channel=0 note=59 velocity=0 time=120\n",
      "note_on channel=0 note=65 velocity=43 time=0\n",
      "control_change channel=0 control=91 value=127 time=119\n",
      "note_on channel=0 note=65 velocity=0 time=1\n",
      "note_on channel=0 note=55 velocity=50 time=240\n",
      "note_on channel=0 note=55 velocity=0 time=120\n",
      "note_on channel=0 note=60 velocity=53 time=0\n",
      "note_on channel=0 note=60 velocity=0 time=120\n",
      "note_on channel=0 note=64 velocity=56 time=0\n",
      "note_on channel=0 note=64 velocity=0 time=108\n",
      "note_on channel=0 note=55 velocity=45 time=12\n",
      "note_on channel=0 note=55 velocity=0 time=120\n",
      "note_on channel=0 note=60 velocity=42 time=0\n",
      "note_on channel=0 note=60 velocity=0 time=120\n",
      "note_on channel=0 note=64 velocity=42 time=0\n",
      "note_on channel=0 note=64 velocity=0 time=120\n",
      "note_on channel=0 note=55 velocity=50 time=240\n",
      "note_on channel=0 note=55 velocity=0 time=120\n",
      "note_on channel=0 note=60 velocity=53 time=0\n",
      "note_on channel=0 note=60 velocity=0 time=120\n",
      "note_on channel=0 note=64 velocity=55 time=0\n",
      "note_on channel=0 note=64 velocity=0 time=108\n",
      "note_on channel=0 note=55 velocity=45 time=12\n",
      "note_on channel=0 note=55 velocity=0 time=120\n",
      "note_on channel=0 note=60 velocity=43 time=0\n",
      "note_on channel=0 note=60 velocity=0 time=120\n",
      "note_on channel=0 note=64 velocity=43 time=0\n",
      "control_change channel=0 control=91 value=127 time=119\n",
      "note_on channel=0 note=64 velocity=0 time=1\n",
      "note_on channel=0 note=58 velocity=47 time=240\n",
      "note_on channel=0 note=58 velocity=0 time=120\n",
      "note_on channel=0 note=60 velocity=50 time=0\n",
      "note_on channel=0 note=60 velocity=0 time=120\n",
      "note_on channel=0 note=64 velocity=53 time=0\n",
      "note_on channel=0 note=64 velocity=0 time=108\n",
      "note_on channel=0 note=58 velocity=41 time=12\n",
      "note_on channel=0 note=58 velocity=0 time=120\n",
      "note_on channel=0 note=60 velocity=40 time=0\n",
      "note_on channel=0 note=60 velocity=0 time=120\n",
      "note_on channel=0 note=64 velocity=40 time=0\n",
      "note_on channel=0 note=64 velocity=0 time=120\n",
      "note_on channel=0 note=58 velocity=47 time=240\n",
      "note_on channel=0 note=58 velocity=0 time=120\n",
      "note_on channel=0 note=60 velocity=50 time=0\n",
      "note_on channel=0 note=60 velocity=0 time=120\n",
      "note_on channel=0 note=64 velocity=52 time=0\n",
      "note_on channel=0 note=64 velocity=0 time=108\n",
      "note_on channel=0 note=58 velocity=42 time=12\n",
      "note_on channel=0 note=58 velocity=0 time=120\n",
      "note_on channel=0 note=60 velocity=40 time=0\n",
      "note_on channel=0 note=60 velocity=0 time=120\n",
      "note_on channel=0 note=64 velocity=40 time=0\n",
      "control_change channel=0 control=91 value=127 time=119\n",
      "note_on channel=0 note=64 velocity=0 time=1\n",
      "note_on channel=0 note=57 velocity=47 time=240\n",
      "note_on channel=0 note=57 velocity=0 time=120\n",
      "note_on channel=0 note=60 velocity=50 time=0\n",
      "note_on channel=0 note=60 velocity=0 time=120\n",
      "note_on channel=0 note=64 velocity=53 time=0\n",
      "note_on channel=0 note=64 velocity=0 time=108\n",
      "note_on channel=0 note=57 velocity=41 time=12\n",
      "note_on channel=0 note=57 velocity=0 time=120\n",
      "note_on channel=0 note=60 velocity=40 time=0\n",
      "note_on channel=0 note=60 velocity=0 time=120\n",
      "note_on channel=0 note=64 velocity=40 time=0\n",
      "note_on channel=0 note=64 velocity=0 time=120\n",
      "note_on channel=0 note=57 velocity=47 time=240\n",
      "note_on channel=0 note=57 velocity=0 time=120\n",
      "note_on channel=0 note=60 velocity=50 time=0\n",
      "note_on channel=0 note=60 velocity=0 time=120\n",
      "note_on channel=0 note=64 velocity=52 time=0\n",
      "note_on channel=0 note=64 velocity=0 time=108\n",
      "note_on channel=0 note=57 velocity=42 time=12\n",
      "note_on channel=0 note=57 velocity=0 time=120\n",
      "note_on channel=0 note=60 velocity=40 time=0\n",
      "note_on channel=0 note=60 velocity=0 time=120\n",
      "note_on channel=0 note=64 velocity=40 time=0\n",
      "control_change channel=0 control=91 value=127 time=119\n",
      "note_on channel=0 note=64 velocity=0 time=1\n",
      "note_on channel=0 note=57 velocity=50 time=240\n",
      "note_on channel=0 note=57 velocity=0 time=120\n",
      "note_on channel=0 note=60 velocity=53 time=0\n",
      "note_on channel=0 note=60 velocity=0 time=120\n",
      "note_on channel=0 note=63 velocity=56 time=0\n",
      "note_on channel=0 note=63 velocity=0 time=108\n",
      "note_on channel=0 note=57 velocity=45 time=12\n",
      "note_on channel=0 note=57 velocity=0 time=120\n",
      "note_on channel=0 note=60 velocity=42 time=0\n",
      "note_on channel=0 note=60 velocity=0 time=120\n",
      "note_on channel=0 note=63 velocity=42 time=0\n",
      "note_on channel=0 note=63 velocity=0 time=120\n",
      "note_on channel=0 note=57 velocity=50 time=240\n",
      "note_on channel=0 note=57 velocity=0 time=120\n",
      "note_on channel=0 note=60 velocity=53 time=0\n",
      "note_on channel=0 note=60 velocity=0 time=120\n",
      "note_on channel=0 note=63 velocity=55 time=0\n",
      "note_on channel=0 note=63 velocity=0 time=108\n",
      "note_on channel=0 note=57 velocity=45 time=12\n",
      "note_on channel=0 note=57 velocity=0 time=120\n",
      "note_on channel=0 note=60 velocity=43 time=0\n",
      "note_on channel=0 note=60 velocity=0 time=120\n",
      "note_on channel=0 note=63 velocity=43 time=0\n",
      "control_change channel=0 control=91 value=127 time=119\n",
      "note_on channel=0 note=63 velocity=0 time=1\n",
      "note_on channel=0 note=59 velocity=47 time=240\n",
      "note_on channel=0 note=59 velocity=0 time=120\n",
      "note_on channel=0 note=60 velocity=50 time=0\n",
      "note_on channel=0 note=60 velocity=0 time=120\n",
      "note_on channel=0 note=62 velocity=53 time=0\n",
      "note_on channel=0 note=62 velocity=0 time=108\n",
      "note_on channel=0 note=59 velocity=41 time=12\n",
      "note_on channel=0 note=59 velocity=0 time=120\n",
      "note_on channel=0 note=60 velocity=40 time=0\n",
      "note_on channel=0 note=60 velocity=0 time=120\n",
      "note_on channel=0 note=62 velocity=40 time=0\n",
      "note_on channel=0 note=62 velocity=0 time=120\n",
      "note_on channel=0 note=59 velocity=47 time=240\n",
      "note_on channel=0 note=59 velocity=0 time=120\n",
      "note_on channel=0 note=60 velocity=50 time=0\n",
      "note_on channel=0 note=60 velocity=0 time=120\n",
      "note_on channel=0 note=62 velocity=52 time=0\n",
      "note_on channel=0 note=62 velocity=0 time=108\n",
      "note_on channel=0 note=59 velocity=42 time=12\n",
      "note_on channel=0 note=59 velocity=0 time=120\n",
      "note_on channel=0 note=60 velocity=40 time=0\n",
      "note_on channel=0 note=60 velocity=0 time=120\n",
      "note_on channel=0 note=62 velocity=40 time=0\n",
      "control_change channel=0 control=91 value=127 time=119\n",
      "note_on channel=0 note=62 velocity=0 time=1\n",
      "note_on channel=0 note=55 velocity=50 time=240\n",
      "note_on channel=0 note=55 velocity=0 time=120\n",
      "note_on channel=0 note=59 velocity=53 time=0\n",
      "note_on channel=0 note=59 velocity=0 time=120\n",
      "note_on channel=0 note=62 velocity=56 time=0\n",
      "note_on channel=0 note=62 velocity=0 time=108\n",
      "note_on channel=0 note=55 velocity=45 time=12\n",
      "note_on channel=0 note=55 velocity=0 time=120\n",
      "note_on channel=0 note=59 velocity=42 time=0\n",
      "note_on channel=0 note=59 velocity=0 time=120\n",
      "note_on channel=0 note=62 velocity=42 time=0\n",
      "note_on channel=0 note=62 velocity=0 time=120\n",
      "note_on channel=0 note=55 velocity=50 time=240\n",
      "note_on channel=0 note=55 velocity=0 time=120\n",
      "note_on channel=0 note=59 velocity=53 time=0\n",
      "note_on channel=0 note=59 velocity=0 time=120\n",
      "note_on channel=0 note=62 velocity=55 time=0\n",
      "note_on channel=0 note=62 velocity=0 time=108\n",
      "note_on channel=0 note=55 velocity=45 time=12\n",
      "note_on channel=0 note=55 velocity=0 time=120\n",
      "note_on channel=0 note=59 velocity=43 time=0\n",
      "note_on channel=0 note=59 velocity=0 time=120\n",
      "note_on channel=0 note=62 velocity=43 time=0\n",
      "control_change channel=0 control=91 value=127 time=119\n",
      "note_on channel=0 note=62 velocity=0 time=1\n",
      "note_on channel=0 note=55 velocity=50 time=240\n",
      "note_on channel=0 note=55 velocity=0 time=120\n",
      "note_on channel=0 note=60 velocity=53 time=0\n",
      "note_on channel=0 note=60 velocity=0 time=120\n",
      "note_on channel=0 note=64 velocity=56 time=0\n",
      "note_on channel=0 note=64 velocity=0 time=108\n",
      "note_on channel=0 note=55 velocity=45 time=12\n",
      "note_on channel=0 note=55 velocity=0 time=120\n",
      "note_on channel=0 note=60 velocity=42 time=0\n",
      "note_on channel=0 note=60 velocity=0 time=120\n",
      "note_on channel=0 note=64 velocity=42 time=0\n",
      "note_on channel=0 note=64 velocity=0 time=120\n",
      "note_on channel=0 note=55 velocity=50 time=240\n",
      "note_on channel=0 note=55 velocity=0 time=120\n",
      "note_on channel=0 note=60 velocity=53 time=0\n",
      "note_on channel=0 note=60 velocity=0 time=120\n",
      "note_on channel=0 note=64 velocity=55 time=0\n",
      "note_on channel=0 note=64 velocity=0 time=108\n",
      "note_on channel=0 note=55 velocity=45 time=12\n",
      "note_on channel=0 note=55 velocity=0 time=120\n",
      "note_on channel=0 note=60 velocity=43 time=0\n",
      "note_on channel=0 note=60 velocity=0 time=120\n",
      "note_on channel=0 note=64 velocity=43 time=0\n",
      "control_change channel=0 control=91 value=127 time=119\n",
      "note_on channel=0 note=64 velocity=0 time=1\n",
      "note_on channel=0 note=55 velocity=53 time=240\n",
      "note_on channel=0 note=55 velocity=0 time=120\n",
      "note_on channel=0 note=60 velocity=56 time=0\n",
      "note_on channel=0 note=60 velocity=0 time=120\n",
      "note_on channel=0 note=65 velocity=60 time=0\n",
      "note_on channel=0 note=65 velocity=0 time=108\n",
      "note_on channel=0 note=55 velocity=46 time=12\n",
      "note_on channel=0 note=55 velocity=0 time=120\n",
      "note_on channel=0 note=60 velocity=45 time=0\n",
      "note_on channel=0 note=60 velocity=0 time=120\n",
      "note_on channel=0 note=65 velocity=45 time=0\n",
      "note_on channel=0 note=65 velocity=0 time=120\n",
      "note_on channel=0 note=55 velocity=53 time=240\n",
      "note_on channel=0 note=55 velocity=0 time=120\n",
      "note_on channel=0 note=60 velocity=56 time=0\n",
      "note_on channel=0 note=60 velocity=0 time=120\n",
      "note_on channel=0 note=65 velocity=58 time=0\n",
      "note_on channel=0 note=65 velocity=0 time=108\n",
      "note_on channel=0 note=55 velocity=47 time=12\n",
      "note_on channel=0 note=55 velocity=0 time=120\n",
      "note_on channel=0 note=60 velocity=45 time=0\n",
      "note_on channel=0 note=60 velocity=0 time=120\n",
      "note_on channel=0 note=65 velocity=45 time=0\n",
      "control_change channel=0 control=91 value=127 time=119\n",
      "note_on channel=0 note=65 velocity=0 time=1\n",
      "note_on channel=0 note=55 velocity=53 time=240\n",
      "note_on channel=0 note=55 velocity=0 time=120\n",
      "note_on channel=0 note=59 velocity=56 time=0\n",
      "note_on channel=0 note=59 velocity=0 time=120\n",
      "note_on channel=0 note=65 velocity=60 time=0\n",
      "note_on channel=0 note=65 velocity=0 time=108\n",
      "note_on channel=0 note=55 velocity=46 time=12\n",
      "note_on channel=0 note=55 velocity=0 time=120\n",
      "note_on channel=0 note=59 velocity=45 time=0\n",
      "note_on channel=0 note=59 velocity=0 time=120\n",
      "note_on channel=0 note=65 velocity=45 time=0\n",
      "note_on channel=0 note=65 velocity=0 time=120\n",
      "note_on channel=0 note=55 velocity=53 time=240\n",
      "note_on channel=0 note=55 velocity=0 time=120\n",
      "note_on channel=0 note=59 velocity=56 time=0\n",
      "note_on channel=0 note=59 velocity=0 time=120\n",
      "note_on channel=0 note=65 velocity=58 time=0\n",
      "note_on channel=0 note=65 velocity=0 time=108\n",
      "note_on channel=0 note=55 velocity=47 time=12\n",
      "note_on channel=0 note=55 velocity=0 time=120\n",
      "note_on channel=0 note=59 velocity=45 time=0\n",
      "note_on channel=0 note=59 velocity=0 time=120\n",
      "note_on channel=0 note=65 velocity=45 time=0\n",
      "control_change channel=0 control=91 value=127 time=119\n",
      "note_on channel=0 note=65 velocity=0 time=1\n",
      "note_on channel=0 note=57 velocity=56 time=240\n",
      "note_on channel=0 note=57 velocity=0 time=120\n",
      "note_on channel=0 note=60 velocity=60 time=0\n",
      "note_on channel=0 note=60 velocity=0 time=120\n",
      "note_on channel=0 note=66 velocity=63 time=0\n",
      "note_on channel=0 note=66 velocity=0 time=108\n",
      "note_on channel=0 note=57 velocity=50 time=12\n",
      "note_on channel=0 note=57 velocity=0 time=120\n",
      "note_on channel=0 note=60 velocity=47 time=0\n",
      "note_on channel=0 note=60 velocity=0 time=120\n",
      "note_on channel=0 note=66 velocity=47 time=0\n",
      "note_on channel=0 note=66 velocity=0 time=120\n",
      "note_on channel=0 note=57 velocity=56 time=240\n",
      "note_on channel=0 note=57 velocity=0 time=120\n",
      "note_on channel=0 note=60 velocity=60 time=0\n",
      "note_on channel=0 note=60 velocity=0 time=120\n",
      "note_on channel=0 note=66 velocity=62 time=0\n",
      "note_on channel=0 note=66 velocity=0 time=108\n",
      "note_on channel=0 note=57 velocity=50 time=12\n",
      "note_on channel=0 note=57 velocity=0 time=120\n",
      "note_on channel=0 note=60 velocity=48 time=0\n",
      "note_on channel=0 note=60 velocity=0 time=120\n",
      "note_on channel=0 note=66 velocity=48 time=0\n",
      "control_change channel=0 control=91 value=127 time=119\n",
      "note_on channel=0 note=66 velocity=0 time=1\n",
      "note_on channel=0 note=55 velocity=58 time=240\n",
      "note_on channel=0 note=55 velocity=0 time=120\n",
      "note_on channel=0 note=60 velocity=63 time=0\n",
      "note_on channel=0 note=60 velocity=0 time=120\n",
      "note_on channel=0 note=67 velocity=66 time=0\n",
      "note_on channel=0 note=67 velocity=0 time=108\n",
      "note_on channel=0 note=55 velocity=51 time=12\n",
      "note_on channel=0 note=55 velocity=0 time=120\n",
      "note_on channel=0 note=60 velocity=50 time=0\n",
      "note_on channel=0 note=60 velocity=0 time=120\n",
      "note_on channel=0 note=67 velocity=50 time=0\n",
      "note_on channel=0 note=67 velocity=0 time=120\n",
      "note_on channel=0 note=55 velocity=58 time=240\n",
      "note_on channel=0 note=55 velocity=0 time=120\n",
      "note_on channel=0 note=60 velocity=62 time=0\n",
      "note_on channel=0 note=60 velocity=0 time=120\n",
      "note_on channel=0 note=67 velocity=65 time=0\n",
      "note_on channel=0 note=67 velocity=0 time=108\n",
      "note_on channel=0 note=55 velocity=52 time=12\n",
      "note_on channel=0 note=55 velocity=0 time=120\n",
      "note_on channel=0 note=60 velocity=50 time=0\n",
      "note_on channel=0 note=60 velocity=0 time=120\n",
      "note_on channel=0 note=67 velocity=50 time=0\n",
      "control_change channel=0 control=91 value=127 time=119\n",
      "note_on channel=0 note=67 velocity=0 time=1\n",
      "note_on channel=0 note=55 velocity=50 time=240\n",
      "note_on channel=0 note=55 velocity=0 time=120\n",
      "note_on channel=0 note=60 velocity=53 time=0\n",
      "note_on channel=0 note=60 velocity=0 time=120\n",
      "note_on channel=0 note=65 velocity=56 time=0\n",
      "note_on channel=0 note=65 velocity=0 time=108\n",
      "note_on channel=0 note=55 velocity=45 time=12\n",
      "note_on channel=0 note=55 velocity=0 time=120\n",
      "note_on channel=0 note=60 velocity=42 time=0\n",
      "note_on channel=0 note=60 velocity=0 time=120\n",
      "note_on channel=0 note=65 velocity=42 time=0\n",
      "note_on channel=0 note=65 velocity=0 time=120\n",
      "note_on channel=0 note=55 velocity=50 time=240\n",
      "note_on channel=0 note=55 velocity=0 time=120\n",
      "note_on channel=0 note=60 velocity=53 time=0\n",
      "note_on channel=0 note=60 velocity=0 time=120\n",
      "note_on channel=0 note=65 velocity=55 time=0\n",
      "note_on channel=0 note=65 velocity=0 time=108\n",
      "note_on channel=0 note=55 velocity=45 time=12\n",
      "note_on channel=0 note=55 velocity=0 time=120\n",
      "note_on channel=0 note=60 velocity=43 time=0\n",
      "note_on channel=0 note=60 velocity=0 time=120\n",
      "note_on channel=0 note=65 velocity=43 time=0\n",
      "control_change channel=0 control=91 value=127 time=119\n",
      "note_on channel=0 note=65 velocity=0 time=1\n",
      "note_on channel=0 note=55 velocity=50 time=240\n",
      "note_on channel=0 note=55 velocity=0 time=120\n",
      "note_on channel=0 note=59 velocity=53 time=0\n",
      "note_on channel=0 note=59 velocity=0 time=120\n",
      "note_on channel=0 note=65 velocity=56 time=0\n",
      "note_on channel=0 note=65 velocity=0 time=108\n",
      "note_on channel=0 note=55 velocity=45 time=12\n",
      "note_on channel=0 note=55 velocity=0 time=120\n",
      "note_on channel=0 note=59 velocity=42 time=0\n",
      "note_on channel=0 note=59 velocity=0 time=120\n",
      "note_on channel=0 note=65 velocity=42 time=0\n",
      "note_on channel=0 note=65 velocity=0 time=120\n",
      "note_on channel=0 note=55 velocity=50 time=240\n",
      "note_on channel=0 note=55 velocity=0 time=120\n",
      "note_on channel=0 note=59 velocity=53 time=0\n",
      "note_on channel=0 note=59 velocity=0 time=120\n",
      "note_on channel=0 note=65 velocity=55 time=0\n",
      "note_on channel=0 note=65 velocity=0 time=108\n",
      "note_on channel=0 note=55 velocity=45 time=12\n",
      "note_on channel=0 note=55 velocity=0 time=120\n",
      "note_on channel=0 note=59 velocity=43 time=0\n",
      "note_on channel=0 note=59 velocity=0 time=120\n",
      "note_on channel=0 note=65 velocity=43 time=0\n",
      "control_change channel=0 control=91 value=127 time=119\n",
      "note_on channel=0 note=65 velocity=0 time=1\n",
      "note_on channel=0 note=55 velocity=53 time=240\n",
      "note_on channel=0 note=55 velocity=0 time=120\n",
      "note_on channel=0 note=58 velocity=56 time=0\n",
      "note_on channel=0 note=58 velocity=0 time=120\n",
      "note_on channel=0 note=64 velocity=60 time=0\n",
      "note_on channel=0 note=64 velocity=0 time=108\n",
      "note_on channel=0 note=55 velocity=46 time=12\n",
      "note_on channel=0 note=55 velocity=0 time=120\n",
      "note_on channel=0 note=58 velocity=45 time=0\n",
      "note_on channel=0 note=58 velocity=0 time=120\n",
      "note_on channel=0 note=64 velocity=45 time=0\n",
      "note_on channel=0 note=64 velocity=0 time=120\n",
      "note_on channel=0 note=55 velocity=53 time=240\n",
      "note_on channel=0 note=55 velocity=0 time=120\n",
      "note_on channel=0 note=58 velocity=56 time=0\n",
      "note_on channel=0 note=58 velocity=0 time=120\n",
      "note_on channel=0 note=64 velocity=58 time=0\n",
      "note_on channel=0 note=64 velocity=0 time=108\n",
      "note_on channel=0 note=55 velocity=47 time=12\n",
      "note_on channel=0 note=55 velocity=0 time=120\n",
      "note_on channel=0 note=58 velocity=45 time=0\n",
      "note_on channel=0 note=58 velocity=0 time=120\n",
      "note_on channel=0 note=64 velocity=45 time=0\n",
      "note_on channel=0 note=64 velocity=0 time=120\n",
      "note_on channel=0 note=53 velocity=50 time=239\n",
      "note_on channel=0 note=53 velocity=0 time=120\n",
      "note_on channel=0 note=57 velocity=53 time=0\n",
      "note_on channel=0 note=57 velocity=0 time=120\n",
      "note_on channel=0 note=60 velocity=55 time=0\n",
      "note_on channel=0 note=60 velocity=0 time=120\n",
      "note_on channel=0 note=65 velocity=53 time=0\n",
      "note_on channel=0 note=65 velocity=0 time=120\n",
      "note_on channel=0 note=60 velocity=53 time=0\n",
      "note_on channel=0 note=60 velocity=0 time=120\n",
      "note_on channel=0 note=57 velocity=53 time=0\n",
      "note_on channel=0 note=57 velocity=0 time=120\n",
      "note_on channel=0 note=60 velocity=55 time=0\n",
      "note_on channel=0 note=60 velocity=0 time=120\n",
      "note_on channel=0 note=57 velocity=50 time=0\n",
      "note_on channel=0 note=57 velocity=0 time=120\n",
      "note_on channel=0 note=53 velocity=47 time=0\n",
      "note_on channel=0 note=53 velocity=0 time=120\n",
      "note_on channel=0 note=57 velocity=46 time=0\n",
      "note_on channel=0 note=57 velocity=0 time=120\n",
      "note_on channel=0 note=53 velocity=46 time=0\n",
      "note_on channel=0 note=53 velocity=0 time=120\n",
      "note_on channel=0 note=50 velocity=42 time=0\n",
      "note_on channel=0 note=50 velocity=0 time=120\n",
      "note_on channel=0 note=53 velocity=43 time=0\n",
      "note_on channel=0 note=53 velocity=0 time=120\n",
      "note_on channel=0 note=50 velocity=38 time=0\n",
      "note_on channel=0 note=50 velocity=0 time=120\n",
      "note_on channel=0 note=67 velocity=50 time=240\n",
      "note_on channel=0 note=67 velocity=0 time=120\n",
      "note_on channel=0 note=71 velocity=53 time=0\n",
      "note_on channel=0 note=71 velocity=0 time=120\n",
      "note_on channel=0 note=74 velocity=55 time=0\n",
      "note_on channel=0 note=74 velocity=0 time=120\n",
      "note_on channel=0 note=77 velocity=60 time=0\n",
      "note_on channel=0 note=77 velocity=0 time=120\n",
      "note_on channel=0 note=74 velocity=55 time=0\n",
      "note_on channel=0 note=74 velocity=0 time=120\n",
      "note_on channel=0 note=71 velocity=53 time=0\n",
      "note_on channel=0 note=71 velocity=0 time=120\n",
      "note_on channel=0 note=74 velocity=56 time=0\n",
      "note_on channel=0 note=74 velocity=0 time=120\n",
      "note_on channel=0 note=71 velocity=53 time=0\n",
      "note_on channel=0 note=71 velocity=0 time=120\n",
      "note_on channel=0 note=67 velocity=56 time=0\n",
      "note_on channel=0 note=67 velocity=0 time=120\n",
      "note_on channel=0 note=71 velocity=53 time=0\n",
      "note_on channel=0 note=71 velocity=0 time=120\n",
      "note_on channel=0 note=62 velocity=55 time=0\n",
      "note_on channel=0 note=62 velocity=0 time=120\n",
      "note_on channel=0 note=65 velocity=50 time=0\n",
      "note_on channel=0 note=65 velocity=0 time=120\n",
      "note_on channel=0 note=64 velocity=50 time=0\n",
      "note_on channel=0 note=64 velocity=0 time=120\n",
      "note_on channel=0 note=62 velocity=50 time=0\n",
      "note_on channel=0 note=62 velocity=0 time=120\n",
      "note_on channel=0 note=72 velocity=50 time=1\n",
      "note_on channel=0 note=67 velocity=50 time=0\n",
      "note_on channel=0 note=64 velocity=50 time=0\n",
      "note_on channel=0 note=64 velocity=0 time=1440\n",
      "note_on channel=0 note=67 velocity=0 time=0\n",
      "note_on channel=0 note=72 velocity=0 time=0\n",
      "MetaMessage('end_of_track', time=0)\n"
     ]
    }
   ],
   "source": [
    "# Load midi file\n",
    "midi = MidiFile(\"../midi/piano_midi_de/bach/bach_846.mid\")\n",
    "\n",
    "# Print all messages in track 2\n",
    "for message in midi.tracks[1]:\n",
    "    print(message)"
   ]
  }
 ],
 "metadata": {
  "kernelspec": {
   "display_name": "Django Shell-Plus",
   "language": "python",
   "name": "django_extensions"
  },
  "language_info": {
   "codemirror_mode": {
    "name": "ipython",
    "version": 3
   },
   "file_extension": ".py",
   "mimetype": "text/x-python",
   "name": "python",
   "nbconvert_exporter": "python",
   "pygments_lexer": "ipython3",
   "version": "3.11.0"
  },
  "vscode": {
   "interpreter": {
    "hash": "7b7510469ae1ec5dd10f75fdd90389bb198a340a73d28dade5600db03c07fab4"
   }
  }
 },
 "nbformat": 4,
 "nbformat_minor": 0
}
